<mxfile host="app.diagrams.net" agent="Mozilla/5.0 (Macintosh; Intel Mac OS X 10_15_7) AppleWebKit/537.36 (KHTML, like Gecko) Chrome/137.0.0.0 Safari/537.36" version="27.1.3">
  <diagram name="Page-1" id="RADjEfDqIbdpCUnhWwja">
    <mxGraphModel dx="1118" dy="5" grid="1" gridSize="10" guides="1" tooltips="1" connect="1" arrows="1" fold="1" page="1" pageScale="1" pageWidth="850" pageHeight="1100" math="0" shadow="0">
      <root>
        <mxCell id="0" />
        <mxCell id="1" parent="0" />
        <mxCell id="8H9ynwYRtimdTEEs6MFO-253" style="edgeStyle=orthogonalEdgeStyle;rounded=0;orthogonalLoop=1;jettySize=auto;html=1;entryX=1;entryY=0.5;entryDx=0;entryDy=0;endArrow=diamondThin;endFill=1;endSize=10;startSize=10;" parent="1" source="8H9ynwYRtimdTEEs6MFO-244" target="8H9ynwYRtimdTEEs6MFO-252" edge="1">
          <mxGeometry relative="1" as="geometry" />
        </mxCell>
        <mxCell id="8H9ynwYRtimdTEEs6MFO-252" value="&lt;span style=&quot;font-size: 14px; font-weight: 700;&quot;&gt;NetworkService&lt;/span&gt;" style="html=1;whiteSpace=wrap;container=0;fillColor=#fff2cc;strokeColor=#d6b656;" parent="1" vertex="1">
          <mxGeometry x="1410" y="1670" width="155" height="60" as="geometry" />
        </mxCell>
        <mxCell id="8H9ynwYRtimdTEEs6MFO-272" value="&lt;span style=&quot;font-size: 14px;&quot;&gt;Interfaz&lt;/span&gt;" style="html=1;whiteSpace=wrap;fontStyle=1;fillColor=#dae8fc;strokeColor=#6c8ebf;container=0;" parent="1" vertex="1">
          <mxGeometry x="1410" y="1800" width="500" height="60" as="geometry" />
        </mxCell>
        <mxCell id="8H9ynwYRtimdTEEs6MFO-280" value="&lt;font style=&quot;font-size: 14px;&quot;&gt;Simulador&lt;/font&gt;" style="shape=umlFrame;whiteSpace=wrap;html=1;pointerEvents=0;container=0;width=90;height=30;" parent="1" vertex="1">
          <mxGeometry x="1380" y="1520" width="760" height="490" as="geometry" />
        </mxCell>
        <mxCell id="8H9ynwYRtimdTEEs6MFO-244" value="&lt;span style=&quot;font-size: 14px; font-weight: 700;&quot;&gt;Network&lt;/span&gt;" style="html=1;whiteSpace=wrap;container=0;fillColor=#d5e8d4;strokeColor=#82b366;" parent="1" vertex="1">
          <mxGeometry x="1612.5" y="1670" width="110" height="60" as="geometry" />
        </mxCell>
        <mxCell id="8H9ynwYRtimdTEEs6MFO-258" style="edgeStyle=orthogonalEdgeStyle;rounded=0;orthogonalLoop=1;jettySize=auto;html=1;entryX=1;entryY=0.5;entryDx=0;entryDy=0;endArrow=diamondThin;endFill=1;endSize=10;startSize=10;exitX=0;exitY=0.5;exitDx=0;exitDy=0;" parent="1" source="8H9ynwYRtimdTEEs6MFO-254" target="8H9ynwYRtimdTEEs6MFO-244" edge="1">
          <mxGeometry relative="1" as="geometry">
            <mxPoint x="2110" y="1750" as="sourcePoint" />
            <mxPoint x="2110" y="1810" as="targetPoint" />
            <Array as="points">
              <mxPoint x="1880" y="1700" />
              <mxPoint x="1880" y="1700" />
            </Array>
          </mxGeometry>
        </mxCell>
        <mxCell id="8H9ynwYRtimdTEEs6MFO-254" value="&lt;span style=&quot;font-size: 14px;&quot;&gt;Node&lt;/span&gt;" style="html=1;whiteSpace=wrap;fontStyle=1;container=0;fillColor=#d5e8d4;strokeColor=#82b366;" parent="1" vertex="1">
          <mxGeometry x="1780" y="1670" width="110" height="60" as="geometry" />
        </mxCell>
        <mxCell id="Ta1MpnpQP5XZa8hnllx_-22" style="edgeStyle=orthogonalEdgeStyle;rounded=0;orthogonalLoop=1;jettySize=auto;html=1;entryX=1;entryY=0.5;entryDx=0;entryDy=0;endArrow=diamondThin;endFill=1;endSize=10;startSize=10;" edge="1" parent="1">
          <mxGeometry relative="1" as="geometry">
            <mxPoint x="1965" y="1689.94" as="sourcePoint" />
            <mxPoint x="1890" y="1689.94" as="targetPoint" />
          </mxGeometry>
        </mxCell>
        <mxCell id="8H9ynwYRtimdTEEs6MFO-255" value="&lt;span style=&quot;font-size: 14px;&quot;&gt;Connection&lt;/span&gt;" style="html=1;whiteSpace=wrap;fontStyle=1;fillColor=#d5e8d4;strokeColor=#82b366;container=0;" parent="1" vertex="1">
          <mxGeometry x="1965" y="1670" width="110" height="60" as="geometry" />
        </mxCell>
        <mxCell id="8H9ynwYRtimdTEEs6MFO-256" value="&lt;span style=&quot;font-size: 14px;&quot;&gt;NodeComponent&lt;/span&gt;" style="html=1;whiteSpace=wrap;fontStyle=1;fillColor=#dae8fc;strokeColor=#6c8ebf;container=0;" parent="1" vertex="1">
          <mxGeometry x="1770" y="1540" width="140" height="60" as="geometry" />
        </mxCell>
        <mxCell id="8H9ynwYRtimdTEEs6MFO-257" value="&lt;span style=&quot;font-size: 14px;&quot;&gt;ConnectionComponent&lt;/span&gt;" style="html=1;whiteSpace=wrap;fontStyle=1;fillColor=#dae8fc;strokeColor=#6c8ebf;container=0;" parent="1" vertex="1">
          <mxGeometry x="1925" y="1540" width="190" height="60" as="geometry" />
        </mxCell>
        <mxCell id="8H9ynwYRtimdTEEs6MFO-264" style="rounded=0;orthogonalLoop=1;jettySize=auto;html=1;entryX=0.5;entryY=1;entryDx=0;entryDy=0;endSize=10;startSize=10;fontStyle=1" parent="1" edge="1">
          <mxGeometry relative="1" as="geometry">
            <mxPoint x="2005" y="1670" as="sourcePoint" />
            <mxPoint x="2005" y="1600" as="targetPoint" />
          </mxGeometry>
        </mxCell>
        <mxCell id="8H9ynwYRtimdTEEs6MFO-265" style="rounded=0;orthogonalLoop=1;jettySize=auto;html=1;entryX=0.5;entryY=1;entryDx=0;entryDy=0;endSize=10;startSize=10;startArrow=classic;startFill=1;endArrow=none;fontStyle=1" parent="1" edge="1">
          <mxGeometry relative="1" as="geometry">
            <mxPoint x="2035" y="1670" as="sourcePoint" />
            <mxPoint x="2035" y="1600" as="targetPoint" />
          </mxGeometry>
        </mxCell>
        <mxCell id="8H9ynwYRtimdTEEs6MFO-268" style="rounded=0;orthogonalLoop=1;jettySize=auto;html=1;entryX=0.5;entryY=1;entryDx=0;entryDy=0;endSize=10;startSize=10;fontStyle=1" parent="1" edge="1">
          <mxGeometry relative="1" as="geometry">
            <mxPoint x="1825" y="1670" as="sourcePoint" />
            <mxPoint x="1825" y="1600" as="targetPoint" />
          </mxGeometry>
        </mxCell>
        <mxCell id="8H9ynwYRtimdTEEs6MFO-269" style="rounded=0;orthogonalLoop=1;jettySize=auto;html=1;entryX=0.5;entryY=1;entryDx=0;entryDy=0;endSize=10;startSize=10;startArrow=classic;startFill=1;endArrow=none;fontStyle=1" parent="1" edge="1">
          <mxGeometry relative="1" as="geometry">
            <mxPoint x="1855" y="1670" as="sourcePoint" />
            <mxPoint x="1855" y="1600" as="targetPoint" />
          </mxGeometry>
        </mxCell>
        <mxCell id="Ta1MpnpQP5XZa8hnllx_-2" value="" style="group" vertex="1" connectable="0" parent="1">
          <mxGeometry x="1540" y="1860" width="110" height="130" as="geometry" />
        </mxCell>
        <mxCell id="8H9ynwYRtimdTEEs6MFO-283" value="" style="group;rotation=90;" parent="Ta1MpnpQP5XZa8hnllx_-2" vertex="1" connectable="0">
          <mxGeometry x="20" y="20" width="70" height="30" as="geometry" />
        </mxCell>
        <mxCell id="8H9ynwYRtimdTEEs6MFO-284" style="rounded=0;orthogonalLoop=1;jettySize=auto;html=1;entryX=0.5;entryY=1;entryDx=0;entryDy=0;endSize=10;startSize=10;fontStyle=1" parent="8H9ynwYRtimdTEEs6MFO-283" edge="1">
          <mxGeometry relative="1" as="geometry">
            <mxPoint x="20" y="50" as="sourcePoint" />
            <mxPoint x="20" y="-20" as="targetPoint" />
          </mxGeometry>
        </mxCell>
        <mxCell id="8H9ynwYRtimdTEEs6MFO-285" style="rounded=0;orthogonalLoop=1;jettySize=auto;html=1;entryX=0.5;entryY=1;entryDx=0;entryDy=0;endSize=10;startSize=10;startArrow=classic;startFill=1;endArrow=none;fontStyle=1" parent="8H9ynwYRtimdTEEs6MFO-283" edge="1">
          <mxGeometry relative="1" as="geometry">
            <mxPoint x="50" y="50" as="sourcePoint" />
            <mxPoint x="50" y="-20" as="targetPoint" />
          </mxGeometry>
        </mxCell>
        <mxCell id="Ta1MpnpQP5XZa8hnllx_-1" value="&lt;span style=&quot;font-size: 14px; font-weight: 700;&quot;&gt;ConfigService&lt;/span&gt;" style="html=1;whiteSpace=wrap;container=0;fillColor=#fff2cc;strokeColor=#d6b656;" vertex="1" parent="Ta1MpnpQP5XZa8hnllx_-2">
          <mxGeometry y="70" width="110" height="60" as="geometry" />
        </mxCell>
        <mxCell id="Ta1MpnpQP5XZa8hnllx_-3" value="" style="group" vertex="1" connectable="0" parent="1">
          <mxGeometry x="1670" y="1860" width="110" height="130" as="geometry" />
        </mxCell>
        <mxCell id="Ta1MpnpQP5XZa8hnllx_-4" value="" style="group;rotation=90;" vertex="1" connectable="0" parent="Ta1MpnpQP5XZa8hnllx_-3">
          <mxGeometry x="20" y="20" width="70" height="30" as="geometry" />
        </mxCell>
        <mxCell id="Ta1MpnpQP5XZa8hnllx_-5" style="rounded=0;orthogonalLoop=1;jettySize=auto;html=1;entryX=0.5;entryY=1;entryDx=0;entryDy=0;endSize=10;startSize=10;fontStyle=1" edge="1" parent="Ta1MpnpQP5XZa8hnllx_-4">
          <mxGeometry relative="1" as="geometry">
            <mxPoint x="20" y="50" as="sourcePoint" />
            <mxPoint x="20" y="-20" as="targetPoint" />
          </mxGeometry>
        </mxCell>
        <mxCell id="Ta1MpnpQP5XZa8hnllx_-6" style="rounded=0;orthogonalLoop=1;jettySize=auto;html=1;entryX=0.5;entryY=1;entryDx=0;entryDy=0;endSize=10;startSize=10;startArrow=classic;startFill=1;endArrow=none;fontStyle=1" edge="1" parent="Ta1MpnpQP5XZa8hnllx_-4">
          <mxGeometry relative="1" as="geometry">
            <mxPoint x="50" y="50" as="sourcePoint" />
            <mxPoint x="50" y="-20" as="targetPoint" />
          </mxGeometry>
        </mxCell>
        <mxCell id="Ta1MpnpQP5XZa8hnllx_-7" value="&lt;span style=&quot;font-size: 14px; font-weight: 700;&quot;&gt;ModelService&lt;/span&gt;" style="html=1;whiteSpace=wrap;container=0;fillColor=#fff2cc;strokeColor=#d6b656;" vertex="1" parent="Ta1MpnpQP5XZa8hnllx_-3">
          <mxGeometry y="70" width="110" height="60" as="geometry" />
        </mxCell>
        <mxCell id="Ta1MpnpQP5XZa8hnllx_-8" value="" style="group" vertex="1" connectable="0" parent="1">
          <mxGeometry x="1800" y="1860" width="110" height="130" as="geometry" />
        </mxCell>
        <mxCell id="Ta1MpnpQP5XZa8hnllx_-9" value="" style="group;rotation=90;" vertex="1" connectable="0" parent="Ta1MpnpQP5XZa8hnllx_-8">
          <mxGeometry x="20" y="20" width="70" height="30" as="geometry" />
        </mxCell>
        <mxCell id="Ta1MpnpQP5XZa8hnllx_-10" style="rounded=0;orthogonalLoop=1;jettySize=auto;html=1;entryX=0.5;entryY=1;entryDx=0;entryDy=0;endSize=10;startSize=10;fontStyle=1" edge="1" parent="Ta1MpnpQP5XZa8hnllx_-9">
          <mxGeometry relative="1" as="geometry">
            <mxPoint x="20" y="50" as="sourcePoint" />
            <mxPoint x="20" y="-20" as="targetPoint" />
          </mxGeometry>
        </mxCell>
        <mxCell id="Ta1MpnpQP5XZa8hnllx_-11" style="rounded=0;orthogonalLoop=1;jettySize=auto;html=1;entryX=0.5;entryY=1;entryDx=0;entryDy=0;endSize=10;startSize=10;startArrow=classic;startFill=1;endArrow=none;fontStyle=1" edge="1" parent="Ta1MpnpQP5XZa8hnllx_-9">
          <mxGeometry relative="1" as="geometry">
            <mxPoint x="50" y="50" as="sourcePoint" />
            <mxPoint x="50" y="-20" as="targetPoint" />
          </mxGeometry>
        </mxCell>
        <mxCell id="Ta1MpnpQP5XZa8hnllx_-12" value="&lt;span style=&quot;font-size: 14px; font-weight: 700;&quot;&gt;LibraryService&lt;/span&gt;" style="html=1;whiteSpace=wrap;container=0;fillColor=#fff2cc;strokeColor=#d6b656;" vertex="1" parent="Ta1MpnpQP5XZa8hnllx_-8">
          <mxGeometry y="70" width="110" height="60" as="geometry" />
        </mxCell>
        <mxCell id="Ta1MpnpQP5XZa8hnllx_-13" value="" style="group" vertex="1" connectable="0" parent="1">
          <mxGeometry x="1410" y="1860" width="110" height="130" as="geometry" />
        </mxCell>
        <mxCell id="Ta1MpnpQP5XZa8hnllx_-14" value="" style="group;rotation=90;" vertex="1" connectable="0" parent="Ta1MpnpQP5XZa8hnllx_-13">
          <mxGeometry x="20" y="20" width="70" height="30" as="geometry" />
        </mxCell>
        <mxCell id="Ta1MpnpQP5XZa8hnllx_-15" style="rounded=0;orthogonalLoop=1;jettySize=auto;html=1;entryX=0.5;entryY=1;entryDx=0;entryDy=0;endSize=10;startSize=10;fontStyle=1" edge="1" parent="Ta1MpnpQP5XZa8hnllx_-14">
          <mxGeometry relative="1" as="geometry">
            <mxPoint x="20" y="50" as="sourcePoint" />
            <mxPoint x="20" y="-20" as="targetPoint" />
          </mxGeometry>
        </mxCell>
        <mxCell id="Ta1MpnpQP5XZa8hnllx_-16" style="rounded=0;orthogonalLoop=1;jettySize=auto;html=1;entryX=0.5;entryY=1;entryDx=0;entryDy=0;endSize=10;startSize=10;startArrow=classic;startFill=1;endArrow=none;fontStyle=1" edge="1" parent="Ta1MpnpQP5XZa8hnllx_-14">
          <mxGeometry relative="1" as="geometry">
            <mxPoint x="50" y="50" as="sourcePoint" />
            <mxPoint x="50" y="-20" as="targetPoint" />
          </mxGeometry>
        </mxCell>
        <mxCell id="Ta1MpnpQP5XZa8hnllx_-17" value="&lt;span style=&quot;font-size: 14px; font-weight: 700;&quot;&gt;StateService&lt;/span&gt;" style="html=1;whiteSpace=wrap;container=0;fillColor=#fff2cc;strokeColor=#d6b656;" vertex="1" parent="Ta1MpnpQP5XZa8hnllx_-13">
          <mxGeometry y="70" width="110" height="60" as="geometry" />
        </mxCell>
        <mxCell id="Ta1MpnpQP5XZa8hnllx_-18" value="" style="group;rotation=180;" vertex="1" connectable="0" parent="1">
          <mxGeometry x="1452.5" y="1750" width="70" height="30" as="geometry" />
        </mxCell>
        <mxCell id="Ta1MpnpQP5XZa8hnllx_-19" style="rounded=0;orthogonalLoop=1;jettySize=auto;html=1;entryX=0.5;entryY=1;entryDx=0;entryDy=0;endSize=10;startSize=10;fontStyle=1" edge="1" parent="Ta1MpnpQP5XZa8hnllx_-18">
          <mxGeometry relative="1" as="geometry">
            <mxPoint x="20" y="50" as="sourcePoint" />
            <mxPoint x="20" y="-20" as="targetPoint" />
          </mxGeometry>
        </mxCell>
        <mxCell id="Ta1MpnpQP5XZa8hnllx_-20" style="rounded=0;orthogonalLoop=1;jettySize=auto;html=1;entryX=0.5;entryY=1;entryDx=0;entryDy=0;endSize=10;startSize=10;startArrow=classic;startFill=1;endArrow=none;fontStyle=1" edge="1" parent="Ta1MpnpQP5XZa8hnllx_-18">
          <mxGeometry relative="1" as="geometry">
            <mxPoint x="50" y="50" as="sourcePoint" />
            <mxPoint x="50" y="-20" as="targetPoint" />
          </mxGeometry>
        </mxCell>
        <mxCell id="Ta1MpnpQP5XZa8hnllx_-23" style="edgeStyle=orthogonalEdgeStyle;rounded=0;orthogonalLoop=1;jettySize=auto;html=1;entryX=1;entryY=0.5;entryDx=0;entryDy=0;endArrow=diamondThin;endFill=1;endSize=10;startSize=10;" edge="1" parent="1">
          <mxGeometry relative="1" as="geometry">
            <mxPoint x="1965" y="1709.81" as="sourcePoint" />
            <mxPoint x="1890" y="1709.81" as="targetPoint" />
          </mxGeometry>
        </mxCell>
      </root>
    </mxGraphModel>
  </diagram>
</mxfile>
